<?xml version="1.0" encoding="us-ascii" standalone="no"?><svg xmlns="http://www.w3.org/2000/svg" xmlns:xlink="http://www.w3.org/1999/xlink" contentStyleType="text/css" height="1012px" preserveAspectRatio="none" style="width:933px;height:1012px;background:#FFFFFF;" version="1.1" viewBox="0 0 933 1012" width="933px" zoomAndPan="magnify"><defs/><g><text fill="#000000" font-family="sans-serif" font-size="14" font-weight="bold" lengthAdjust="spacing" textLength="158" x="380.5" y="24.5332">SkillTopo &#12487;&#12540;&#12479;&#12514;&#12487;&#12523;</text><!--class Profile--><g id="elem_Profile"><rect codeLine="3" fill="#F1F1F1" height="92.8281" id="Profile" rx="2.5" ry="2.5" style="stroke:#181818;stroke-width:0.5;" width="165" x="95" y="223.6094"/><ellipse cx="153.25" cy="239.6094" fill="#ADD1B2" rx="11" ry="11" style="stroke:#181818;stroke-width:1.0;"/><path d="M155.9531,245.0469 Q155.0313,245.9688 152.7656,245.9688 Q151.5,245.9688 150.5781,245.0469 Q148.9219,243.3906 148.9219,239.8594 Q148.9219,235.75 150.7031,233.9531 Q151.6406,233.0313 152.8281,233.0313 Q155.0938,233.0313 155.8281,233.75 Q157.2188,235.1563 157.1563,237.5469 L154.6875,237.5469 Q154.625,235.4219 153.8906,234.6875 Q153.5,234.2813 152.8281,234.2813 Q152.8281,234.2813 152.7656,234.75 Q151.4375,236.0781 151.4375,239.7344 Q151.4375,242.9219 152.5781,244.0469 Q153.1094,244.5781 153.1094,244.5781 Q153.3594,244.5781 153.8906,244.0469 Q154.5625,243.3906 154.625,241 L157.2188,241 Q157.0156,243.9844 155.9531,245.0469 Z " fill="#000000"/><text fill="#000000" font-family="sans-serif" font-size="14" lengthAdjust="spacing" textLength="40" x="173.75" y="245.3379">Profile</text><line style="stroke:#181818;stroke-width:0.5;" x1="96" x2="259" y1="255.6094" y2="255.6094"/><text fill="#000000" font-family="sans-serif" font-size="14" lengthAdjust="spacing" textLength="153" x="101" y="274.1426">format: "skilltopo-profile"</text><text fill="#000000" font-family="sans-serif" font-size="14" lengthAdjust="spacing" textLength="62" x="101" y="291.752">version: 1</text><text fill="#000000" font-family="sans-serif" font-size="14" lengthAdjust="spacing" textLength="107" x="101" y="309.3613">userName: string</text></g><!--class Skill--><g id="elem_Skill"><rect codeLine="8" fill="#F1F1F1" height="216.0938" id="Skill" rx="2.5" ry="2.5" style="stroke:#181818;stroke-width:0.5;" width="158" x="433.5" y="408.6094"/><ellipse cx="495.75" cy="424.6094" fill="#ADD1B2" rx="11" ry="11" style="stroke:#181818;stroke-width:1.0;"/><path d="M498.4531,430.0469 Q497.5313,430.9688 495.2656,430.9688 Q494,430.9688 493.0781,430.0469 Q491.4219,428.3906 491.4219,424.8594 Q491.4219,420.75 493.2031,418.9531 Q494.1406,418.0313 495.3281,418.0313 Q497.5938,418.0313 498.3281,418.75 Q499.7188,420.1563 499.6563,422.5469 L497.1875,422.5469 Q497.125,420.4219 496.3906,419.6875 Q496,419.2813 495.3281,419.2813 Q495.3281,419.2813 495.2656,419.75 Q493.9375,421.0781 493.9375,424.7344 Q493.9375,427.9219 495.0781,429.0469 Q495.6094,429.5781 495.6094,429.5781 Q495.8594,429.5781 496.3906,429.0469 Q497.0625,428.3906 497.125,426 L499.7188,426 Q499.5156,428.9844 498.4531,430.0469 Z " fill="#000000"/><text fill="#000000" font-family="sans-serif" font-size="14" lengthAdjust="spacing" textLength="25" x="516.25" y="430.3379">Skill</text><line style="stroke:#181818;stroke-width:0.5;" x1="434.5" x2="590.5" y1="440.6094" y2="440.6094"/><text fill="#000000" font-family="sans-serif" font-size="14" lengthAdjust="spacing" textLength="54" x="439.5" y="459.1426">id: string</text><text fill="#000000" font-family="sans-serif" font-size="14" lengthAdjust="spacing" textLength="78" x="439.5" y="476.752">name: string</text><text fill="#000000" font-family="sans-serif" font-size="14" lengthAdjust="spacing" textLength="98" x="439.5" y="494.3613">category: string</text><text fill="#000000" font-family="sans-serif" font-size="14" lengthAdjust="spacing" textLength="112" x="439.5" y="511.9707">description: string</text><text fill="#000000" font-family="sans-serif" font-size="14" lengthAdjust="spacing" textLength="94" x="439.5" y="529.5801">level: 0..4 | null</text><text fill="#000000" font-family="sans-serif" font-size="14" lengthAdjust="spacing" textLength="79" x="439.5" y="547.1895">interest: 0..4</text><text fill="#000000" font-family="sans-serif" font-size="14" lengthAdjust="spacing" textLength="146" x="439.5" y="564.7988">lastUsed: "" | YYYY-MM</text><text fill="#000000" font-family="sans-serif" font-size="14" lengthAdjust="spacing" textLength="102" x="439.5" y="582.4082">pinned: boolean</text><text fill="#000000" font-family="sans-serif" font-size="14" lengthAdjust="spacing" textLength="95" x="439.5" y="600.0176">related: string[]</text><text fill="#000000" font-family="sans-serif" font-size="14" lengthAdjust="spacing" textLength="78" x="439.5" y="617.627">notes: string</text></g><!--class Category--><g id="elem_Category"><rect codeLine="20" fill="#F1F1F1" height="138.75" id="Category" rx="2.5" ry="2.5" style="stroke:#181818;stroke-width:0.5;" width="123" x="451" y="702.6094"/><ellipse cx="480.85" cy="723.9609" fill="#ADD1B2" rx="11" ry="11" style="stroke:#181818;stroke-width:1.0;"/><path d="M483.5531,729.3984 Q482.6313,730.3203 480.3656,730.3203 Q479.1,730.3203 478.1781,729.3984 Q476.5219,727.7422 476.5219,724.2109 Q476.5219,720.1016 478.3031,718.3047 Q479.2406,717.3828 480.4281,717.3828 Q482.6938,717.3828 483.4281,718.1016 Q484.8188,719.5078 484.7563,721.8984 L482.2875,721.8984 Q482.225,719.7734 481.4906,719.0391 Q481.1,718.6328 480.4281,718.6328 Q480.4281,718.6328 480.3656,719.1016 Q479.0375,720.4297 479.0375,724.0859 Q479.0375,727.2734 480.1781,728.3984 Q480.7094,728.9297 480.7094,728.9297 Q480.9594,728.9297 481.4906,728.3984 Q482.1625,727.7422 482.225,725.3516 L484.8188,725.3516 Q484.6156,728.3359 483.5531,729.3984 Z " fill="#000000"/><text fill="#000000" font-family="sans-serif" font-size="12" font-style="italic" lengthAdjust="spacing" textLength="52" x="501.15" y="720.0664">&#171;built-in&#187;</text><text fill="#000000" font-family="sans-serif" font-size="14" lengthAdjust="spacing" textLength="58" x="498.15" y="737.2363">Category</text><line style="stroke:#181818;stroke-width:0.5;" x1="452" x2="573" y1="745.3125" y2="745.3125"/><text fill="#000000" font-family="sans-serif" font-size="14" lengthAdjust="spacing" textLength="54" x="457" y="763.8457">id: string</text><text fill="#000000" font-family="sans-serif" font-size="14" lengthAdjust="spacing" textLength="78" x="457" y="781.4551">name: string</text><text fill="#000000" font-family="sans-serif" font-size="14" lengthAdjust="spacing" textLength="111" x="457" y="799.0645">shortName: string</text><text fill="#000000" font-family="sans-serif" font-size="14" lengthAdjust="spacing" textLength="74" x="457" y="816.6738">color: string</text><text fill="#000000" font-family="sans-serif" font-size="14" lengthAdjust="spacing" textLength="80" x="457" y="834.2832">group: string</text></g><!--class CategoryGroup--><g id="elem_CategoryGroup"><rect codeLine="27" fill="#F1F1F1" height="85.9219" id="CategoryGroup" rx="2.5" ry="2.5" style="stroke:#181818;stroke-width:0.5;" width="130" x="447.5" y="919.6094"/><ellipse cx="462.5" cy="940.9609" fill="#ADD1B2" rx="11" ry="11" style="stroke:#181818;stroke-width:1.0;"/><path d="M465.2031,946.3984 Q464.2813,947.3203 462.0156,947.3203 Q460.75,947.3203 459.8281,946.3984 Q458.1719,944.7422 458.1719,941.2109 Q458.1719,937.1016 459.9531,935.3047 Q460.8906,934.3828 462.0781,934.3828 Q464.3438,934.3828 465.0781,935.1016 Q466.4688,936.5078 466.4063,938.8984 L463.9375,938.8984 Q463.875,936.7734 463.1406,936.0391 Q462.75,935.6328 462.0781,935.6328 Q462.0781,935.6328 462.0156,936.1016 Q460.6875,937.4297 460.6875,941.0859 Q460.6875,944.2734 461.8281,945.3984 Q462.3594,945.9297 462.3594,945.9297 Q462.6094,945.9297 463.1406,945.3984 Q463.8125,944.7422 463.875,942.3516 L466.4688,942.3516 Q466.2656,945.3359 465.2031,946.3984 Z " fill="#000000"/><text fill="#000000" font-family="sans-serif" font-size="12" font-style="italic" lengthAdjust="spacing" textLength="52" x="499.5" y="937.0664">&#171;built-in&#187;</text><text fill="#000000" font-family="sans-serif" font-size="14" lengthAdjust="spacing" textLength="98" x="476.5" y="954.2363">CategoryGroup</text><line style="stroke:#181818;stroke-width:0.5;" x1="448.5" x2="576.5" y1="962.3125" y2="962.3125"/><text fill="#000000" font-family="sans-serif" font-size="14" lengthAdjust="spacing" textLength="54" x="453.5" y="980.8457">id: string</text><text fill="#000000" font-family="sans-serif" font-size="14" lengthAdjust="spacing" textLength="78" x="453.5" y="998.4551">name: string</text></g><!--class Metadata--><g id="elem_Metadata"><rect codeLine="31" fill="#F1F1F1" height="103.5313" id="Metadata" rx="2.5" ry="2.5" style="stroke:#181818;stroke-width:0.5;" width="173" x="475" y="218.1094"/><ellipse cx="517" cy="239.4609" fill="#ADD1B2" rx="11" ry="11" style="stroke:#181818;stroke-width:1.0;"/><path d="M519.7031,244.8984 Q518.7813,245.8203 516.5156,245.8203 Q515.25,245.8203 514.3281,244.8984 Q512.6719,243.2422 512.6719,239.7109 Q512.6719,235.6016 514.4531,233.8047 Q515.3906,232.8828 516.5781,232.8828 Q518.8438,232.8828 519.5781,233.6016 Q520.9688,235.0078 520.9063,237.3984 L518.4375,237.3984 Q518.375,235.2734 517.6406,234.5391 Q517.25,234.1328 516.5781,234.1328 Q516.5781,234.1328 516.5156,234.6016 Q515.1875,235.9297 515.1875,239.5859 Q515.1875,242.7734 516.3281,243.8984 Q516.8594,244.4297 516.8594,244.4297 Q517.1094,244.4297 517.6406,243.8984 Q518.3125,243.2422 518.375,240.8516 L520.9688,240.8516 Q520.7656,243.8359 519.7031,244.8984 Z " fill="#000000"/><text fill="#000000" font-family="sans-serif" font-size="12" font-style="italic" lengthAdjust="spacing" textLength="85" x="535" y="235.5664">&#171;frontend only&#187;</text><text fill="#000000" font-family="sans-serif" font-size="14" lengthAdjust="spacing" textLength="59" x="548" y="252.7363">Metadata</text><line style="stroke:#181818;stroke-width:0.5;" x1="476" x2="647" y1="260.8125" y2="260.8125"/><text fill="#000000" font-family="sans-serif" font-size="14" lengthAdjust="spacing" textLength="54" x="481" y="279.3457">id: string</text><text fill="#000000" font-family="sans-serif" font-size="14" lengthAdjust="spacing" textLength="161" x="481" y="296.9551">kind: skill | tool | language</text><text fill="#000000" font-family="sans-serif" font-size="14" lengthAdjust="spacing" textLength="87" x="481" y="314.5645">aliases: string</text></g><!--class ProfileDocument--><g id="elem_ProfileDocument"><rect codeLine="36" fill="#F1F1F1" height="85.9219" id="ProfileDocument" rx="2.5" ry="2.5" style="stroke:#181818;stroke-width:0.5;" width="136" x="204.5" y="45.6094"/><ellipse cx="219.5" cy="66.9609" fill="#ADD1B2" rx="11" ry="11" style="stroke:#181818;stroke-width:1.0;"/><path d="M222.2031,72.3984 Q221.2813,73.3203 219.0156,73.3203 Q217.75,73.3203 216.8281,72.3984 Q215.1719,70.7422 215.1719,67.2109 Q215.1719,63.1016 216.9531,61.3047 Q217.8906,60.3828 219.0781,60.3828 Q221.3438,60.3828 222.0781,61.1016 Q223.4688,62.5078 223.4063,64.8984 L220.9375,64.8984 Q220.875,62.7734 220.1406,62.0391 Q219.75,61.6328 219.0781,61.6328 Q219.0781,61.6328 219.0156,62.1016 Q217.6875,63.4297 217.6875,67.0859 Q217.6875,70.2734 218.8281,71.3984 Q219.3594,71.9297 219.3594,71.9297 Q219.6094,71.9297 220.1406,71.3984 Q220.8125,70.7422 220.875,68.3516 L223.4688,68.3516 Q223.2656,71.3359 222.2031,72.3984 Z " fill="#000000"/><text fill="#000000" font-family="sans-serif" font-size="12" font-style="italic" lengthAdjust="spacing" textLength="57" x="257" y="63.0664">&#171;UI / IPC&#187;</text><text fill="#000000" font-family="sans-serif" font-size="14" lengthAdjust="spacing" textLength="104" x="233.5" y="80.2363">ProfileDocument</text><line style="stroke:#181818;stroke-width:0.5;" x1="205.5" x2="339.5" y1="88.3125" y2="88.3125"/><text fill="#000000" font-family="sans-serif" font-size="14" lengthAdjust="spacing" textLength="104" x="210.5" y="106.8457">path: string | null</text><text fill="#000000" font-family="sans-serif" font-size="14" lengthAdjust="spacing" textLength="86" x="210.5" y="124.4551">dirty: boolean</text></g><!--class Session--><g id="elem_Session"><rect codeLine="40" fill="#F1F1F1" height="121.1406" id="Session" rx="2.5" ry="2.5" style="stroke:#181818;stroke-width:0.5;" width="144" x="295.5" y="209.6094"/><ellipse cx="323.1" cy="230.9609" fill="#ADD1B2" rx="11" ry="11" style="stroke:#181818;stroke-width:1.0;"/><path d="M325.8031,236.3984 Q324.8813,237.3203 322.6156,237.3203 Q321.35,237.3203 320.4281,236.3984 Q318.7719,234.7422 318.7719,231.2109 Q318.7719,227.1016 320.5531,225.3047 Q321.4906,224.3828 322.6781,224.3828 Q324.9438,224.3828 325.6781,225.1016 Q327.0688,226.5078 327.0063,228.8984 L324.5375,228.8984 Q324.475,226.7734 323.7406,226.0391 Q323.35,225.6328 322.6781,225.6328 Q322.6781,225.6328 322.6156,226.1016 Q321.2875,227.4297 321.2875,231.0859 Q321.2875,234.2734 322.4281,235.3984 Q322.9594,235.9297 322.9594,235.9297 Q323.2094,235.9297 323.7406,235.3984 Q324.4125,234.7422 324.475,232.3516 L327.0688,232.3516 Q326.8656,235.3359 325.8031,236.3984 Z " fill="#000000"/><text fill="#000000" font-family="sans-serif" font-size="12" font-style="italic" lengthAdjust="spacing" textLength="88" x="337.9" y="227.0664">&#171;Rust memory&#187;</text><text fill="#000000" font-family="sans-serif" font-size="14" lengthAdjust="spacing" textLength="50" x="356.9" y="244.2363">Session</text><line style="stroke:#181818;stroke-width:0.5;" x1="296.5" x2="438.5" y1="252.3125" y2="252.3125"/><text fill="#000000" font-family="sans-serif" font-size="14" lengthAdjust="spacing" textLength="130" x="301.5" y="270.8457">path: PathBuf | None</text><text fill="#000000" font-family="sans-serif" font-size="14" lengthAdjust="spacing" textLength="132" x="301.5" y="288.4551">original: bytes | None</text><text fill="#000000" font-family="sans-serif" font-size="14" lengthAdjust="spacing" textLength="62" x="301.5" y="306.0645">dirty: bool</text><text fill="#000000" font-family="sans-serif" font-size="14" lengthAdjust="spacing" textLength="79" x="301.5" y="323.6738">closing: bool</text></g><g id="elem_GMN16"><path d="M6,495.1094 L6,537.8125 A0,0 0 0 0 6,537.8125 L349,537.8125 A0,0 0 0 0 349,537.8125 L349,505.1094 L339,495.1094 L181.5,495.1094 L177.5,316.8094 L173.5,495.1094 L6,495.1094 A0,0 0 0 0 6,495.1094 " fill="#FEFFDD" style="stroke:#181818;stroke-width:0.5;"/><path d="M339,495.1094 L339,505.1094 L349,505.1094 L339,495.1094 " fill="#FEFFDD" style="stroke:#181818;stroke-width:0.5;"/><text fill="#000000" font-family="sans-serif" font-size="13" lengthAdjust="spacing" textLength="247" x="12" y="513.6045">&#12501;&#12449;&#12452;&#12523;&#12395;&#20445;&#23384;&#12377;&#12427;&#12398;&#12399; Profile &#12392; skills&#12290;</text><text fill="#000000" font-family="sans-serif" font-size="13" lengthAdjust="spacing" textLength="322" x="12" y="529.9561">Category / Metadata / UI&#29366;&#24907; / Session &#12399;&#20445;&#23384;&#12375;&#12394;&#12356;&#12290;</text></g><g id="elem_GMN19"><path d="M719,495.1094 L719,512.6094 L591.51,516.6094 L719,520.6094 L719,537.8125 A0,0 0 0 0 719,537.8125 L926,537.8125 A0,0 0 0 0 926,537.8125 L926,505.1094 L916,495.1094 L719,495.1094 A0,0 0 0 0 719,495.1094 " fill="#FEFFDD" style="stroke:#181818;stroke-width:0.5;"/><path d="M916,495.1094 L916,505.1094 L926,505.1094 L916,495.1094 " fill="#FEFFDD" style="stroke:#181818;stroke-width:0.5;"/><text fill="#000000" font-family="sans-serif" font-size="13" lengthAdjust="spacing" textLength="186" x="725" y="513.6045">related &#12399;&#29255;&#26041;&#21521;&#12539;&#37325;&#35079;&#12434;&#35377;&#23481;&#12290;</text><text fill="#000000" font-family="sans-serif" font-size="13" lengthAdjust="spacing" textLength="182" x="725" y="529.9561">&#21442;&#29031;&#20808;&#12394;&#12375;&#12392;&#33258;&#24049;&#21442;&#29031;&#12399;&#25298;&#21542;&#12290;</text></g><!--reverse link Profile to Skill--><g id="link_Profile_Skill"><path codeLine="46" d="M250.2467,323.9449 C287.0067,350.6649 324.55,377.9794 366.5,408.6094 C388.2,424.4494 411.69,441.6494 433.35,457.5294 " fill="none" id="Profile-backto-Skill" style="stroke:#181818;stroke-width:1.0;"/><polygon fill="#181818" points="240.54,316.8894,243.0415,323.6527,250.2467,323.9449,247.7452,317.1816,240.54,316.8894" style="stroke:#181818;stroke-width:1.0;"/><text fill="#000000" font-family="sans-serif" font-size="13" lengthAdjust="spacing" textLength="30" x="326.5" y="375.1045">skills</text><text fill="#000000" font-family="sans-serif" font-size="13" lengthAdjust="spacing" textLength="7" x="241.5407" y="337.7807">1</text><text fill="#000000" font-family="sans-serif" font-size="13" lengthAdjust="spacing" textLength="36" x="389.6084" y="449.6893">1..500</text></g><!--link Skill to Category--><g id="link_Skill_Category"><path codeLine="47" d="M512.5,624.7494 C512.5,651.0994 512.5,672.6094 512.5,696.5694 " fill="none" id="Skill-to-Category" style="stroke:#181818;stroke-width:1.0;"/><polygon fill="#181818" points="512.5,702.5694,516.5,693.5694,512.5,697.5694,508.5,693.5694,512.5,702.5694" style="stroke:#181818;stroke-width:1.0;"/><text fill="#000000" font-family="sans-serif" font-size="13" lengthAdjust="spacing" textLength="66" x="513.5" y="669.1045">category ID</text><text fill="#000000" font-family="sans-serif" font-size="13" lengthAdjust="spacing" textLength="5" x="507.332" y="646.0563">*</text><text fill="#000000" font-family="sans-serif" font-size="13" lengthAdjust="spacing" textLength="7" x="505.1172" y="691.6165">1</text></g><!--link Category to CategoryGroup--><g id="link_Category_CategoryGroup"><path codeLine="48" d="M512.5,841.6994 C512.5,867.6994 512.5,890.5194 512.5,913.3894 " fill="none" id="Category-to-CategoryGroup" style="stroke:#181818;stroke-width:1.0;"/><polygon fill="#181818" points="512.5,919.3894,516.5,910.3894,512.5,914.3894,508.5,910.3894,512.5,919.3894" style="stroke:#181818;stroke-width:1.0;"/><text fill="#000000" font-family="sans-serif" font-size="13" lengthAdjust="spacing" textLength="48" x="513.5" y="886.1045">group ID</text><text fill="#000000" font-family="sans-serif" font-size="13" lengthAdjust="spacing" textLength="5" x="507.2539" y="862.8619">*</text><text fill="#000000" font-family="sans-serif" font-size="13" lengthAdjust="spacing" textLength="7" x="504.9422" y="908.7555">1</text></g><!--link Skill to Skill--><g id="link_Skill_Skill"><path codeLine="49" d="M591.62,489.5894 C611.56,491.4194 626.5,500.4294 626.5,516.6094 C626.5,532.7894 617.5349,541.251 597.5949,543.081 " fill="none" id="Skill-to-Skill" style="stroke:#181818;stroke-width:1.0;"/><polygon fill="#181818" points="591.62,543.6294,600.9479,546.7901,596.5991,543.1724,600.2168,538.8236,591.62,543.6294" style="stroke:#181818;stroke-width:1.0;"/><text fill="#000000" font-family="sans-serif" font-size="13" lengthAdjust="spacing" textLength="62" x="632.5" y="522.1045">related IDs</text></g><!--link Metadata to Skill--><g id="link_Metadata_Skill"><path codeLine="50" d="M551.23,322.3694 C546.2,347.4294 541.1393,372.7064 535.1393,402.6364 " fill="none" id="Metadata-to-Skill" style="stroke:#181818;stroke-width:1.0;stroke-dasharray:7.0,7.0;"/><polygon fill="#181818" points="533.96,408.5194,539.651,400.4812,534.9428,403.6169,531.807,398.9087,533.96,408.5194" style="stroke:#181818;stroke-width:1.0;"/><text fill="#000000" font-family="sans-serif" font-size="13" lengthAdjust="spacing" textLength="51" x="544.5" y="375.1045">ID&#12391;&#23550;&#24540;</text></g><!--reverse link ProfileDocument to Profile--><g id="link_ProfileDocument_Profile"><path codeLine="51" d="M244.6171,142.2958 C230.0271,169.8658 216.58,195.2694 201.63,223.5194 " fill="none" id="ProfileDocument-backto-Profile" style="stroke:#181818;stroke-width:1.0;"/><polygon fill="#181818" points="250.23,131.6894,243.8881,135.1216,244.6171,142.2958,250.959,138.8635,250.23,131.6894" style="stroke:#181818;stroke-width:1.0;"/><text fill="#000000" font-family="sans-serif" font-size="13" lengthAdjust="spacing" textLength="7" x="239.284" y="153.039">1</text><text fill="#000000" font-family="sans-serif" font-size="13" lengthAdjust="spacing" textLength="7" x="197.789" y="212.6955">1</text></g><!--link ProfileDocument to Session--><g id="link_ProfileDocument_Session"><path codeLine="52" d="M294.77,131.6894 C307,154.7994 322.38,183.8494 335.83,209.2794 " fill="none" id="ProfileDocument-Session" style="stroke:#181818;stroke-width:1.0;stroke-dasharray:7.0,7.0;"/><text fill="#000000" font-family="sans-serif" font-size="13" lengthAdjust="spacing" textLength="99" x="321.5" y="176.1045">IPC&#25104;&#21151;&#26178;&#12395;&#25972;&#21512;</text></g><!--SRC=[bLHTQnD157tVNp7iOo7R5lGbb3xOWkIXfQXz4F5XcfqaGoSpOMQs46p1tLXI6yHOg5fGH2csjDXI4AKeziUCczP_uPtzIcmhOXwoE_VZd3ld7bPJpGYwkqmPkoTQ0fbErtI-c-ZCT3uaxuTEW_e4DObk25yvLOQLGWjIr2ZqFN8GgWdPnBgCN6L1D82KMcdQXUmAaOeANaQJS0WKaVEuISf8QKbvtLdBy1B-18twHH8XFbgBK1LhKXUoFHBoYQfAsj89HH5bP8MmCfhml1je5V60COlCDP54wJHkgx3IYue0eUj2sNtubURc8D6YdDlmaX2CO0uHIHXm5wCzU6Y74vgeApUPoMP4KrDB0MMwHFdqz3zlfXf2wlbBjnLCo95pNOgWzLU-spRxFwGvm1pHsCSQGszD2j28-qXmrhuEO9boUqoMjOeqo0CFXdazm7K2USmeLjU8ajbbLbI39k4Qg1OhQ1nL5cOobXRMZRnhk36VIjqUhg4m2r7MKe1o9r0QdDc4-_y1j03_ju8Q8CqBRWSJajOfn-29fJPiRPWOeR2ICw5WWkoyvkGsToTTD5OgmTFpRavCk9bVCocKanxTCHULIjD9TM63Sk5QL9brYl1rjUaAo-cYRNKAQyjolio7a5HEiJZF6nPKPasu5n__YC_UE9TL7zx2pJTofSRp2ddBTZ-3ZNwy-Mwm4vdmSB3zEUvlEDRt893Meeb4hK0odMqJlJVHBdmoeFZdsTluqsiJxfYePy8Z4nuN7mqJxcV2cSVHK9BneHN7qMBbVFFBOBq7h_ay0963lZBXWGcVs7PhLpjHEXQikQ7jL8aUJYuNj9u_xGvUdiRz5wRpxLVtsSLkrqHR5_idyT6fXOcVH-VhU_7wHe8C-FiNtOFuwqaQX_v1RolkVnnb_0q0]--></g></svg>